HIERARCHY
ROOT Hips
{
	OFFSET 0.00 0.00 0.00
	CHANNELS 6 Xposition Yposition Zposition Xrotation Yrotation Zrotation
	JOINT Spine
	{
		OFFSET 0.00000 0.84964 1.27446
		CHANNELS 3 Xrotation Yrotation Zrotation
		JOINT Spine1
		{
			OFFSET 0.00000 0.29508 1.67346
			CHANNELS 3 Xrotation Yrotation Zrotation
			JOINT Spine2
			{
				OFFSET 0.00000 0.14810 1.69281
				CHANNELS 3 Xrotation Yrotation Zrotation
				JOINT Spine3
				{
					OFFSET 0.00000 0.00000 1.69928
					CHANNELS 3 Xrotation Yrotation Zrotation
					JOINT Neck
					{
						OFFSET 0.00000 -0.63723 4.46061
						CHANNELS 3 Xrotation Yrotation Zrotation
						JOINT Head
						{
							OFFSET 0.00000 -0.40573 2.30101
							CHANNELS 3 Xrotation Yrotation Zrotation
							End Site
							{
								OFFSET 0.00000 0.00000 2.75071
							}
						}
					}
					JOINT RightShoulder
					{
						OFFSET -0.72014 -1.20022 3.88874
						CHANNELS 3 Xrotation Yrotation Zrotation
						JOINT RightArm
						{
							OFFSET -3.57668 0.00000 0.00000
							CHANNELS 3 Xrotation Yrotation Zrotation
							JOINT RightForeArm
							{
								OFFSET -5.92485 0.00000 0.00000
								CHANNELS 3 Xrotation Yrotation Zrotation
								JOINT RightHand
								{
									OFFSET -6.63013 0.00000 0.00000
									CHANNELS 3 Xrotation Yrotation Zrotation
									JOINT RightHandEnd
									{
										OFFSET -1.65321 0.00000 0.00000
										CHANNELS 3 Xrotation Yrotation Zrotation
										End Site
										{
											OFFSET -1.65321 0.00000 0.00000
										}
									}
									JOINT RightHandThumb1
									{
										OFFSET -0.66129 -1.10214 -0.44086
										CHANNELS 3 Yrotation Xrotation Zrotation
										End Site
										{
											OFFSET -1.59688 -0.42788 0.00000
										}
									}
								}
							}
						}
					}
					JOINT LeftShoulder
					{
						OFFSET 0.72014 -1.20022 3.88874
						CHANNELS 3 Xrotation Yrotation Zrotation
						JOINT LeftArm
						{
							OFFSET 3.57668 0.00000 0.00000
							CHANNELS 3 Xrotation Yrotation Zrotation
							JOINT LeftForeArm
							{
								OFFSET 5.92485 0.00000 0.00000
								CHANNELS 3 Xrotation Yrotation Zrotation
								JOINT LeftHand
								{
									OFFSET 6.63013 0.00000 0.00000
									CHANNELS 3 Xrotation Yrotation Zrotation
									JOINT LeftHandEnd
									{
										OFFSET 1.65321 0.00000 0.00000
										CHANNELS 3 Xrotation Yrotation Zrotation
										End Site
										{
											OFFSET 1.65321 0.00000 0.00000
										}
									}
									JOINT LeftHandThumb1
									{
										OFFSET 0.66129 -1.10214 -0.44086
										CHANNELS 3 Yrotation Xrotation Zrotation
										End Site
										{
											OFFSET 1.59688 -0.42788 0.00000
										}
									}
								}
							}
						}
					}
				}
			}
		}
	}
	JOINT RightUpLeg
	{
		OFFSET -2.13640 0.00000 -0.62412
		CHANNELS 3 Xrotation Yrotation Zrotation
		JOINT RightLeg
		{
			OFFSET 0.00000 0.00000 -11.49360
			CHANNELS 3 Xrotation Yrotation Zrotation
			JOINT RightFoot
			{
				OFFSET 0.00000 0.00000 -8.79036
				CHANNELS 3 Xrotation Yrotation Zrotation
				JOINT RightToeBase
				{
					OFFSET 0.00000 -3.94625 -1.43632
					CHANNELS 3 Xrotation Yrotation Zrotation
					End Site
					{
						OFFSET 0.00000 -1.72833 -0.00000
					}
				}
			}
		}
	}
	JOINT LeftUpLeg
	{
		OFFSET 2.13640 0.00000 -0.62412
		CHANNELS 3 Xrotation Yrotation Zrotation
		JOINT LeftLeg
		{
			OFFSET 0.00000 0.00000 -11.49360
			CHANNELS 3 Xrotation Yrotation Zrotation
			JOINT LeftFoot
			{
				OFFSET 0.00000 0.00000 -8.79036
				CHANNELS 3 Xrotation Yrotation Zrotation
				JOINT LeftToeBase
				{
					OFFSET 0.00000 -3.94625 -1.43632
					CHANNELS 3 Xrotation Yrotation Zrotation
					End Site
					{
						OFFSET 0.00000 -1.72833 -0.00000
					}
				}
			}
		}
	}
}
MOTION
Frames: 15
Frame Time: 0.008342
 -1.0415 -111.3459 23.0137 -2.6523 0.1101 169.1915 -2.6418 -1.4930 1.5073 -1.3720 -1.6478 -0.3422 0.8924 -0.2017 1.4891 -0.9195 6.4506 -0.7544 -5.7216 2.3264 -2.4999 1.5171 -7.4926 -6.9972 -1.2290 -3.4146 -1.4598 -14.5581 14.6357 -6.1647 0.0000 0.0000 14.0020 6.0776 -10.8495 -9.8706 0.0000 0.0000 -0.0000 0.0000 0.0000 -0.0000 -1.1501 -2.1255 0.6396 -13.9927 -6.1303 -8.8714 -0.0000 -0.0000 -9.9510 -6.9402 -15.4318 12.4591 0.0000 -0.0000 -0.0000 -0.0000 -0.0000 -0.0000 -1.7479 -1.5956 -52.9823 3.5071 0.0000 0.0000 -22.1596 5.2676 63.7834 -11.1466 0.0000 -0.0000 4.3805 -1.3023 12.4662 -6.1127 0.0000 -0.0000 -6.0705 -4.4323 -15.9836 -0.6594 0.0000 -0.0000
 -1.0418 -111.3474 23.0269 -2.5927 -0.1000 169.2140 -2.6288 -1.6914 1.4660 -1.3617 -1.6572 -0.3504 1.0323 -0.1756 1.4702 -0.8957 6.4733 -0.7696 -5.7982 2.3008 -2.5018 1.4771 -7.5493 -7.0105 -1.3122 -3.5903 -1.4737 -14.6472 14.7603 -6.1133 0.0000 0.0000 14.0161 6.0550 -10.8498 -9.8410 0.0000 -0.0000 0.0000 0.0000 0.0000 -0.0000 -1.2154 -2.0209 0.6551 -14.0299 -6.2836 -8.9441 -0.0000 -0.0000 -9.9589 -6.9221 -15.4446 12.4612 -0.0000 -0.0000 0.0000 -0.0000 -0.0000 0.0000 -1.6296 -1.7860 -52.8048 3.3751 0.0000 0.0000 -21.2530 4.7747 63.2612 -10.4259 0.0000 -0.0000 4.5083 -1.5171 12.4416 -6.2417 0.0000 -0.0000 -5.8624 -3.7805 -15.8302 -0.4184 0.0000 -0.0000
 -1.0422 -111.3495 23.0427 -2.5151 -0.3826 169.2471 -2.5932 -1.9629 1.4037 -1.3485 -1.6565 -0.3551 1.1934 -0.1465 1.4415 -0.8712 6.4943 -0.7848 -5.8884 2.2717 -2.5064 1.4293 -7.6177 -7.0276 -1.4118 -3.7967 -1.4923 -14.7615 14.9046 -6.0469 0.0000 0.0000 14.0329 6.0288 -10.8550 -9.8060 0.0000 0.0000 -0.0000 0.0000 0.0000 -0.0000 -1.2888 -1.8954 0.6728 -14.0410 -6.4780 -9.0263 -0.0000 -0.0000 -9.9719 -6.9017 -15.4587 12.4620 0.0000 0.0000 0.0000 -0.0000 0.0000 0.0000 -1.4705 -2.0480 -52.5783 3.1925 0.0000 0.0000 -20.0935 4.1384 62.6129 -9.5061 0.0000 -0.0000 4.6700 -1.8043 12.4070 -6.3828 0.0000 -0.0000 -5.6426 -3.0931 -15.6683 -0.1603 0.0000 -0.0000
 -1.0427 -111.3521 23.0603 -2.4116 -0.7289 169.2889 -2.5184 -2.2891 1.3245 -1.3373 -1.6594 -0.3647 1.3662 -0.1126 1.4124 -0.8463 6.5172 -0.8026 -5.9874 2.2369 -2.5146 1.3744 -7.6917 -7.0487 -1.5241 -4.0226 -1.5141 -14.8980 15.0570 -5.9671 0.0000 0.0000 14.0499 5.9971 -10.8636 -9.7642 0.0000 0.0000 0.0000 0.0000 -0.0000 -0.0000 -1.3648 -1.7618 0.6922 -14.0145 -6.7027 -9.1114 -0.0000 -0.0000 -9.9892 -6.8799 -15.4770 12.4593 0.0000 -0.0000 -0.0000 -0.0000 -0.0000 0.0000 -1.2648 -2.3704 -52.3143 2.9630 0.0000 0.0000 -18.7101 3.3616 61.8736 -8.4037 0.0000 -0.0000 4.8716 -2.1518 12.3666 -6.5318 0.0000 -0.0000 -5.4209 -2.4077 -15.5083 0.1002 0.0000 0.0000
 -1.0437 -111.3560 23.0790 -2.3275 -1.1149 169.3382 -2.4598 -2.6612 1.2303 -1.3195 -1.6513 -0.3707 1.5490 -0.0821 1.3718 -0.8232 6.5414 -0.8199 -6.0954 2.1943 -2.5250 1.3142 -7.7674 -7.0748 -1.6494 -4.2661 -1.5395 -15.0503 15.2153 -5.8729 0.0000 0.0000 14.0650 5.9603 -10.8773 -9.7102 -0.0000 0.0000 0.0000 -0.0000 -0.0000 0.0000 -1.4425 -1.6220 0.7150 -13.9363 -6.9589 -9.1947 -0.0000 -0.0000 -10.0157 -6.8526 -15.5000 12.4648 0.0000 -0.0000 -0.0000 0.0000 -0.0000 0.0000 -1.0675 -2.7358 -52.0097 2.6972 0.0000 0.0000 -17.1508 2.4700 61.0699 -7.1538 0.0000 -0.0000 5.0551 -2.5436 12.3218 -6.6735 0.0000 -0.0000 -5.2109 -1.7639 -15.3597 0.3497 0.0000 0.0000
 -1.0451 -111.3607 23.0977 -2.2472 -1.5279 169.3932 -2.3934 -3.0544 1.1266 -1.3003 -1.6445 -0.3794 1.7279 -0.0510 1.3246 -0.8023 6.5628 -0.8381 -6.2036 2.1484 -2.5399 1.2531 -7.8440 -7.1011 -1.7745 -4.5112 -1.5666 -15.2235 15.3654 -5.7649 0.0000 0.0000 14.0812 5.9260 -10.8922 -9.6670 0.0000 0.0000 0.0000 0.0000 -0.0000 -0.0000 -1.5132 -1.4881 0.7387 -13.7939 -7.2347 -9.2652 -0.0000 -0.0000 -10.0438 -6.8414 -15.5210 12.4477 -0.0000 -0.0000 0.0000 -0.0000 -0.0000 0.0000 -0.8624 -3.1331 -51.6771 2.3920 0.0000 0.0000 -15.4728 1.4948 60.2453 -5.8114 0.0000 -0.0000 5.2374 -2.9624 12.2738 -6.8112 0.0000 -0.0000 -5.0180 -1.1929 -15.2285 0.5749 0.0000 0.0000
 -1.0472 -111.3662 23.1155 -2.1670 -1.9421 169.4479 -2.3120 -3.4462 1.0173 -1.2804 -1.6313 -0.3859 1.8932 -0.0245 1.2726 -0.7867 6.5783 -0.8539 -6.3071 2.1000 -2.5581 1.1924 -7.9116 -7.1311 -1.8970 -4.7426 -1.5928 -15.3992 15.4993 -5.6552 0.0000 0.0000 14.0962 5.8839 -10.9132 -9.6146 -0.0000 -0.0000 0.0000 -0.0000 -0.0000 0.0000 -1.5730 -1.3677 0.7593 -13.5821 -7.5189 -9.3145 -0.0000 -0.0000 -10.0797 -6.8270 -15.5438 12.4347 0.0000 0.0000 0.0000 0.0000 -0.0000 -0.0000 -0.6543 -3.5332 -51.3467 2.0666 0.0000 0.0000 -13.7667 0.4797 59.4631 -4.4447 0.0000 -0.0000 5.4160 -3.3796 12.2248 -6.9378 0.0000 -0.0000 -4.8495 -0.7214 -15.1173 0.7653 0.0000 0.0000
 -1.0500 -111.3729 23.1314 -2.1123 -2.3279 169.4970 -2.2430 -3.8084 0.9115 -1.2610 -1.6118 -0.3897 2.0401 -0.0072 1.2127 -0.7761 6.5873 -0.8684 -6.4038 2.0504 -2.5785 1.1350 -7.9692 -7.1621 -2.0128 -4.9562 -1.6185 -15.5733 15.6139 -5.5410 0.0000 0.0000 14.1088 5.8368 -10.9380 -9.5618 0.0000 -0.0000 -0.0000 -0.0000 -0.0000 0.0000 -1.6203 -1.2673 0.7818 -13.2962 -7.8014 -9.3416 -0.0000 -0.0000 -10.1199 -6.8174 -15.5677 12.4166 0.0000 -0.0000 -0.0000 0.0000 -0.0000 0.0000 -0.4798 -3.9105 -51.0215 1.7406 0.0000 0.0000 -12.1262 -0.5110 58.7502 -3.1330 0.0000 -0.0000 5.5555 -3.7693 12.1774 -7.0446 0.0000 -0.0000 -4.7106 -0.3652 -15.0292 0.9148 0.0000 0.0000
 -1.0537 -111.3804 23.1449 -2.0613 -2.6691 169.5358 -2.1584 -4.1211 0.8161 -1.2448 -1.5868 -0.3927 2.1582 0.0020 1.1461 -0.7726 6.5860 -0.8767 -6.4872 2.0021 -2.6016 1.0833 -8.0107 -7.1944 -2.1141 -5.1357 -1.6404 -15.7391 15.6978 -5.4330 0.0000 0.0000 14.1217 5.7860 -10.9642 -9.5096 -0.0000 0.0000 -0.0000 -0.0000 -0.0000 -0.0000 -1.6483 -1.1914 0.8008 -12.9383 -8.0740 -9.3376 -0.0000 -0.0000 -10.1644 -6.8151 -15.5894 12.3926 0.0000 -0.0000 -0.0000 -0.0000 -0.0000 0.0000 -0.3232 -4.2432 -50.7264 1.4349 0.0000 0.0000 -10.6448 -1.4181 58.1472 -1.9540 0.0000 -0.0000 5.6793 -4.1087 12.1371 -7.1374 0.0000 -0.0000 -4.5982 -0.1276 -14.9659 1.0207 0.0000 0.0000
 -1.0582 -111.3889 23.1554 -2.0476 -2.9488 169.5603 -2.1017 -4.3707 0.7361 -1.2279 -1.5593 -0.3930 2.2486 0.0031 1.0757 -0.7726 6.5740 -0.8863 -6.5585 1.9569 -2.6246 1.0382 -8.0380 -7.2276 -2.2029 -5.2848 -1.6598 -15.8896 15.7552 -5.3276 0.0000 0.0000 14.1317 5.7288 -10.9916 -9.4589 0.0000 0.0000 0.0000 -0.0000 -0.0000 -0.0000 -1.6623 -1.1416 0.8173 -12.5118 -8.3307 -9.2993 -0.0000 -0.0000 -10.2139 -6.8181 -15.6061 12.3638 0.0000 0.0000 0.0000 0.0000 -0.0000 -0.0000 -0.2262 -4.5217 -50.4812 1.1662 0.0000 0.0000 -9.3951 -2.1831 57.6764 -0.9736 0.0000 -0.0000 5.7470 -4.3880 12.1058 -7.2102 0.0000 -0.0000 -4.5142 -0.0024 -14.9267 1.0853 0.0000 0.0000
 -1.0634 -111.3985 23.1629 -2.0676 -3.1552 169.5666 -2.0693 -4.5460 0.6734 -1.2106 -1.5280 -0.3929 2.3115 -0.0081 1.0031 -0.7791 6.5531 -0.8897 -6.6157 1.9185 -2.6488 0.9995 -8.0516 -7.2611 -2.2749 -5.3996 -1.6751 -16.0212 15.7857 -5.2334 0.0000 0.0000 14.1423 5.6661 -11.0181 -9.4106 -0.0000 0.0000 -0.0000 0.0000 -0.0000 -0.0000 -1.6613 -1.1167 0.8317 -12.0292 -8.5645 -9.2313 -0.0000 -0.0000 -10.2667 -6.8268 -15.6204 12.3296 0.0000 -0.0000 -0.0000 0.0000 0.0000 0.0000 -0.1918 -4.7306 -50.2928 0.9544 0.0000 0.0000 -8.4354 -2.7644 57.3418 -0.2352 0.0000 -0.0000 5.7601 -4.5935 12.0893 -7.2629 0.0000 -0.0000 -4.4541 0.0263 -14.9109 1.1148 0.0000 0.0000
 -1.0693 -111.4085 23.1676 -2.0856 -3.2912 169.5529 -2.0157 -4.6425 0.6351 -1.2024 -1.4978 -0.3914 2.3437 -0.0262 0.9273 -0.7898 6.5207 -0.8902 -6.6582 1.8862 -2.6715 0.9687 -8.0486 -7.2947 -2.3309 -5.4746 -1.6846 -16.1278 15.7860 -5.1525 0.0000 0.0000 14.1517 5.5984 -11.0421 -9.3629 -0.0000 0.0000 -0.0000 -0.0000 -0.0000 -0.0000 -1.6445 -1.1171 0.8436 -11.5044 -8.7704 -9.1330 -0.0000 -0.0000 -10.3217 -6.8416 -15.6265 12.2913 -0.0000 0.0000 0.0000 0.0000 -0.0000 -0.0000 -0.1846 -4.8647 -50.1638 0.8114 0.0000 0.0000 -7.7909 -3.1456 57.1400 0.2463 0.0000 0.0000 5.7610 -4.7212 12.0901 -7.3051 0.0000 -0.0000 -4.4088 -0.0176 -14.9125 1.1168 0.0000 0.0000
 -1.0757 -111.4187 23.1698 -2.1032 -3.3648 169.5205 -1.9506 -4.6710 0.6180 -1.1982 -1.4654 -0.3888 2.3508 -0.0531 0.8500 -0.8041 6.4798 -0.8874 -6.6877 1.8605 -2.6925 0.9444 -8.0319 -7.3282 -2.3734 -5.5136 -1.6882 -16.2079 15.7590 -5.0874 0.0000 0.0000 14.1613 5.5257 -11.0625 -9.3170 0.0000 0.0000 -0.0000 0.0000 0.0000 0.0000 -1.6162 -1.1402 0.8544 -10.9532 -8.9465 -9.0106 -0.0000 -0.0000 -10.3788 -6.8604 -15.6235 12.2508 0.0000 -0.0000 -0.0000 0.0000 0.0000 0.0000 -0.2022 -4.9344 -50.0857 0.7297 0.0000 0.0000 -7.4413 -3.3328 57.0509 0.4817 0.0000 0.0000 5.7515 -4.7806 12.1086 -7.3417 0.0000 -0.0000 -4.3727 -0.1072 -14.9261 1.1014 0.0000 0.0000
 -1.0824 -111.4296 23.1700 -2.1572 -3.3766 169.4684 -1.9238 -4.6436 0.6165 -1.1914 -1.4190 -0.3784 2.3420 -0.1016 0.7704 -0.8177 6.4343 -0.8838 -6.7100 1.8456 -2.7100 0.9234 -8.0076 -7.3623 -2.4070 -5.5289 -1.6878 -16.2648 15.7187 -5.0332 0.0000 0.0000 14.1688 5.4455 -11.0831 -9.2703 -0.0000 -0.0000 0.0000 -0.0000 0.0000 0.0000 -1.5836 -1.1769 0.8638 -10.3963 -9.0920 -8.8675 -0.0000 -0.0000 -10.4388 -6.8799 -15.6171 12.2069 -0.0000 -0.0000 0.0000 -0.0000 -0.0000 -0.0000 -0.2837 -4.9453 -50.0545 0.7090 0.0000 0.0000 -7.3464 -3.3514 57.0600 0.5063 0.0000 0.0000 5.6892 -4.7810 12.1476 -7.3665 0.0000 -0.0000 -4.3443 -0.2175 -14.9496 1.0791 0.0000 0.0000
 -1.0895 -111.4406 23.1689 -2.2094 -3.3409 169.4016 -1.8903 -4.5616 0.6327 -1.1923 -1.3846 -0.3741 2.3251 -0.1520 0.7003 -0.8321 6.3922 -0.8811 -6.7249 1.8356 -2.7278 0.9040 -7.9779 -7.3963 -2.4339 -5.5240 -1.6844 -16.3002 15.6626 -4.9948 0.0000 0.0000 14.1777 5.3616 -11.1033 -9.2241 -0.0000 0.0000 -0.0000 -0.0000 -0.0000 -0.0000 -1.5485 -1.2266 0.8730 -9.8503 -9.2119 -8.7174 -0.0000 -0.0000 -10.4961 -6.9034 -15.5962 12.1609 -0.0000 0.0000 0.0000 -0.0000 -0.0000 0.0000 -0.3831 -4.9036 -50.0542 0.7382 0.0000 0.0000 -7.4494 -3.2458 57.1396 0.3741 0.0000 0.0000 5.6186 -4.7303 12.2026 -7.3851 0.0000 -0.0000 -4.3169 -0.3240 -14.9750 1.0585 0.0000 0.0000
